<svg width="618" height="328" viewBox="0 0 618 328" fill="none" xmlns="http://www.w3.org/2000/svg">
<path d="M115.038 186.946C117.513 188.28 118.924 189.695 119.269 191.191C119.5 192.189 118.617 192.918 116.621 193.379C114.626 193.84 111.93 193.969 108.534 193.768C108.332 189.48 108.537 182.404 109.151 172.542C109.385 169.86 109.678 166.574 110.027 162.684C110.363 158.731 110.773 154.104 111.257 148.803C111.281 148.338 110.537 147.82 109.026 147.249C107.515 146.679 106.229 146.516 105.169 146.76C104.67 146.876 104.301 147.125 104.061 147.509C102.9 150.733 101.351 154.407 99.4137 158.533C97.4761 162.658 95.2268 167.283 92.6656 172.406C87.9799 181.699 84.2676 188.664 81.529 193.303C66.0778 193.52 53.6129 194.723 44.1343 196.912C42.014 197.401 40.1025 197.941 38.3996 198.531C36.7447 199.045 35.2433 199.654 33.8954 200.359C27.3766 203.703 23.5251 209.355 22.341 217.313C21.9287 219.51 21.7514 221.587 21.8091 223.544C21.8669 225.501 22.0901 227.322 22.4788 229.006C23.3858 232.934 25.1586 235.776 27.7971 237.532C30.498 239.273 33.8055 239.659 37.7198 238.689C45.6107 236.736 54.6093 230.192 64.7155 219.057C68.3129 215.008 71.5433 211.077 74.4067 207.263C77.3182 203.372 79.9034 199.491 82.1624 195.62C86.5708 195.653 90.7394 195.643 94.6682 195.59C98.5969 195.537 102.324 195.465 105.85 195.373C106.172 198.189 106.505 200.772 106.851 203.123C107.259 205.459 107.686 207.593 108.132 209.527C109.327 214.702 110.661 218.204 112.134 220.032C112.254 220.267 112.532 220.334 112.969 220.233C114.091 219.974 114.607 219.362 114.516 218.398C114.501 218.336 114.386 218.264 114.17 218.182C113.954 218.101 113.707 218.026 113.429 217.959C113.151 217.892 112.872 217.825 112.594 217.758C112.378 217.676 112.263 217.604 112.249 217.542C111.51 216.333 110.889 214.637 110.385 212.455C109.895 210.335 109.521 207.859 109.262 205.029C109.002 202.199 108.805 198.927 108.671 195.215C111.669 195.114 114.038 194.993 115.78 194.854C117.569 194.638 118.771 194.295 119.385 193.825C121.394 192.573 122.104 191.522 121.514 190.673C120.243 188.865 118.216 187.198 115.433 185.673C115.218 185.591 115.002 185.51 114.786 185.428C114.632 185.332 114.462 185.306 114.275 185.349C113.901 185.435 113.819 185.651 114.03 185.997C114.131 186.433 114.467 186.75 115.038 186.946ZM33.9244 202.619C35.2243 201.99 36.7329 201.412 38.4502 200.884C40.1531 200.294 42.0958 199.747 44.2784 199.243C55.3161 196.695 67.2293 195.521 80.0181 195.721C74.9005 203.996 69.4638 211.459 63.708 218.108C54.3597 228.542 45.6849 234.781 37.6837 236.826C35.8896 237.306 34.2658 237.385 32.8123 237.064C31.3588 236.742 30.0276 236.097 28.8186 235.128C26.7222 233.445 25.2708 230.857 24.4646 227.365C23.7304 224.185 23.5958 220.899 24.0607 217.507C24.5929 213.837 25.6647 210.798 27.2763 208.39C28.9358 205.905 31.1518 203.981 33.9244 202.619ZM83.5293 193.432C87.2272 187.258 90.798 180.818 94.2416 174.112C97.6852 167.405 101.05 160.356 104.335 152.963C104.575 152.579 104.774 152.303 104.932 152.135C105.076 151.905 105.304 151.754 105.616 151.682C106.177 151.553 106.573 151.987 106.803 152.984C106.846 153.171 106.877 153.591 106.897 154.244C105.224 172.89 104.885 186.072 105.879 193.79C102.228 193.91 98.5248 193.944 94.7688 193.892C91.0751 193.825 87.3286 193.672 83.5293 193.432ZM117.121 220.26C117.817 219.573 118.44 219.003 118.992 218.547C119.558 218.153 120.069 217.806 120.525 217.503C120.966 217.139 121.165 216.863 121.122 216.676C125.62 203.157 131.894 192.776 139.942 185.532C141.803 183.92 143.422 183.251 144.799 183.524C145.015 183.605 145.264 183.548 145.547 183.351C145.816 183.092 146.046 182.809 146.238 182.502C146.478 182.118 146.655 181.749 146.77 181.394C146.933 180.962 146.993 180.653 146.95 180.466C146.936 180.403 146.89 180.348 146.813 180.3C145.777 180.08 144.3 180.224 142.381 180.732C140.352 182.186 137.716 184.995 134.474 189.159C131.327 193.17 128.877 196.921 127.121 200.413C126.992 200.706 126.675 201.042 126.171 201.421C125.543 201.829 125.193 201.877 125.121 201.565C125.063 201.315 125.085 200.982 125.186 200.565C125.555 199.034 126.195 197.113 127.106 194.801C128.065 192.412 129.226 189.615 130.588 186.411C130.828 186.027 130.78 185.677 130.444 185.36C130.247 185.077 129.962 184.979 129.588 185.065C129.401 185.108 129.29 185.199 129.257 185.339C125.875 188.615 123.839 190.465 123.148 190.887C123.129 191.088 123.18 191.307 123.3 191.542C123.616 192.06 123.789 192.381 123.818 192.506C123.962 193.129 123.955 193.952 123.796 194.974C122.78 200.529 120.327 208.682 116.438 219.432C116.323 219.787 116.363 220.106 116.56 220.389C116.709 220.749 116.896 220.706 117.121 220.26ZM168.894 207.026C159.957 210.994 151.364 215.31 143.114 219.973C134.801 224.651 126.699 229.674 118.809 235.043C95.9667 250.76 83.4335 264.754 81.2088 277.025C80.7917 279.486 80.8639 281.932 81.4254 284.364C83.1242 291.723 88.4302 297.493 97.3435 301.675C106.209 305.934 115.066 306.746 123.917 304.112C149.719 296.382 165.764 264.171 172.053 207.479C178.879 204.327 187.935 201.448 199.222 198.842C200.656 198.511 201.942 198.247 203.079 198.05C204.264 197.777 205.3 197.57 206.187 197.431C209.3 196.975 211.116 197.869 211.635 200.114C212.254 202.796 211.127 206.307 208.254 210.649C207.731 211.229 207.513 211.707 207.599 212.081C207.613 212.143 207.683 212.16 207.808 212.131C208.182 212.045 208.561 211.695 208.944 211.081C211.597 207.775 213.148 205.249 213.599 203.503C213.844 202.856 213.873 202.126 213.685 201.316C213.498 200.505 213.131 199.769 212.584 199.107C212.037 198.445 211.38 197.874 210.612 197.395C209.907 196.901 209.13 196.522 208.281 196.258C207.494 195.98 206.744 195.857 206.029 195.891C204.259 195.906 201.846 196.266 198.79 196.971C190.122 198.972 181.25 201.94 172.175 205.874C172.999 197.211 173.517 190.49 173.727 185.713C173.909 185.079 174.058 184.585 174.173 184.23C174.336 183.798 174.507 183.398 174.684 183.029C174.665 182.376 174.31 181.834 173.619 181.402C172.99 180.956 172.153 180.887 171.108 181.194C170.686 181.357 170.307 181.707 169.971 182.245C169.683 182.705 169.448 183.252 169.266 183.885C168.58 184.898 167.618 186.138 166.381 187.606C165.206 189.059 163.755 190.741 162.028 192.65C159.826 195.063 157.833 197.1 156.049 198.76C154.313 200.343 152.792 201.581 151.488 202.473C151.032 202.775 150.471 202.905 149.804 202.862C149.262 202.79 148.919 202.442 148.775 201.818C148.703 201.507 148.703 201.08 148.775 200.538C149.412 197.894 150.578 194.407 152.271 190.075C154.333 185.067 155.954 182.131 157.134 181.267C156.765 180.236 156.15 179.852 155.292 180.116C154.807 180.294 153.558 181.14 151.543 182.657C149.639 184.081 148.612 185.041 148.464 185.535C148.363 185.952 148.438 186.559 148.687 187.355C148.999 188.137 149.121 188.667 149.054 188.946C145.971 199.773 144.386 205.853 144.3 207.187C144.276 207.652 144.501 208.06 144.976 208.41C145.451 208.76 145.969 208.87 146.53 208.741C146.717 208.697 146.984 208.57 147.329 208.359C150.567 206.167 154.711 202.353 159.762 196.917C163.609 192.811 166.75 189.064 169.187 185.677C169.264 186.579 169.312 187.783 169.331 189.289C169.413 190.781 169.449 192.645 169.44 194.88C169.44 200.003 169.258 204.052 168.894 207.026ZM84.1304 279.011C85.8562 267.709 95.804 255.034 113.974 240.987C129.198 229.261 147.503 218.5 168.887 208.703C168.072 217.692 166.783 226.332 165.018 234.621C163.33 242.959 161.182 251.008 158.573 258.77C149.922 283.888 138.178 298.455 123.341 302.472C114.759 304.847 106.396 304.183 98.25 300.481C90.4593 296.893 85.8081 291.826 84.2965 285.278C84.0517 284.218 83.9389 283.16 83.958 282.105C83.9291 281.126 83.9866 280.095 84.1304 279.011ZM186.055 201.783C189.451 198.569 193.36 194.021 197.782 188.14C199.979 185.136 201.876 182.4 203.473 179.929C205.132 177.444 206.502 175.124 207.581 172.971C207.677 172.817 207.756 172.733 207.818 172.719C208.317 172.603 208.428 172.939 208.149 173.726C207.464 175.592 206.814 177.614 206.2 179.792C205.648 181.956 205.102 184.282 204.56 186.772C204.119 188.844 203.743 191.197 203.431 193.831C203.119 196.464 202.87 199.083 202.683 201.688C202.511 204.355 202.427 206.838 202.432 209.136C202.5 211.419 202.653 213.223 202.893 214.547C203.205 216.182 203.723 217.573 204.448 218.72C205.249 219.914 206.321 220.718 207.665 221.13C208.821 221.586 210.073 221.888 211.421 222.036C212.783 222.247 214.213 222.18 215.709 221.834C216.707 221.604 217.621 221.295 218.451 220.906C219.295 220.58 220.117 220.16 220.918 219.647C222.521 218.62 224.192 217.183 225.933 215.336C227.737 213.475 229.703 211.181 231.833 208.456C234.092 205.439 235.946 202.515 237.394 199.685C238.905 196.84 240.133 194.192 241.078 191.74C241.226 191.246 241.272 190.875 241.214 190.625C241.185 190.5 241.133 190.414 241.056 190.366C240.869 190.409 240.567 190.807 240.149 191.561C239.099 193.839 237.797 196.308 236.243 198.965C234.751 201.608 232.965 204.254 230.883 206.902C226.561 212.367 222.878 216.041 219.832 217.927C217.822 219.179 215.695 220.064 213.45 220.583C211.205 221.101 209.305 220.981 207.751 220.223C206.211 219.528 205.196 218.12 204.707 216C204.635 215.688 204.563 215.376 204.491 215.065C204.433 214.815 204.4 214.527 204.39 214.201C204.222 212.335 204.21 210.006 204.353 207.214C204.497 204.422 204.736 201.477 205.072 198.378C205.455 195.202 205.947 192.068 206.546 188.973C207.131 185.817 207.826 182.996 208.632 180.511C209.668 177.316 210.749 174.177 211.876 171.092C213.051 167.931 214.219 164.738 215.38 161.515C215.413 161.375 215.301 161.172 215.041 160.903C214.782 160.634 214.528 160.529 214.279 160.586C214.029 160.644 213.857 160.75 213.761 160.903C213.406 161.642 212.689 162.234 211.609 162.681C211.499 162.772 210.899 162.877 209.811 162.997C209.005 162.921 208.213 162.906 207.436 162.954C206.644 162.94 205.875 163.019 205.126 163.192C204.44 163.35 203.776 163.602 203.133 163.948C202.538 164.216 201.982 164.509 201.464 164.826C199.262 166.385 196.989 168.486 194.643 171.13C192.283 173.711 189.88 176.959 187.434 180.873C182.11 189.393 179.959 195.867 180.982 200.294C181.486 202.477 182.517 203.388 184.076 203.028C184.7 202.884 185.359 202.469 186.055 201.783ZM185.716 193.487C186.128 191.29 186.799 188.935 187.73 186.421C188.722 183.893 190.005 181.199 191.579 178.34C194.931 172.377 197.986 168.683 200.745 167.258C201.45 166.898 202.145 166.639 202.831 166.481C204.078 166.193 205.179 166.267 206.134 166.703C207.074 167.077 207.624 167.607 207.782 168.293C207.839 168.543 207.796 168.783 207.652 169.013C204.449 175.336 201.345 180.814 198.343 185.448C195.326 190.02 192.324 193.801 189.335 196.789C188.908 197.216 188.477 197.48 188.04 197.581C186.918 197.84 186.184 197.221 185.838 195.725C185.665 194.976 185.625 194.231 185.716 193.487ZM211.863 194.741C214.291 193.59 215.722 192.537 216.159 191.582C218.845 186.43 221.545 181.767 224.26 177.593C227.037 173.405 229.915 169.654 232.893 166.339C233.32 165.912 233.783 165.64 234.282 165.525C235.404 165.266 236.081 165.635 236.311 166.633C236.397 167.007 236.376 167.341 236.246 167.633C235.014 170.545 233.896 173.529 232.894 176.585C231.94 179.564 231.077 182.653 230.305 185.853C228.319 193.471 227.658 199.568 228.32 204.144C228.93 208.207 230.324 210.972 232.502 212.44C234.497 213.687 236.714 213.898 239.15 213.073C245.962 210.712 251.677 205.878 256.296 198.572C257.975 195.886 259.301 193.379 260.274 191.052C261.248 188.726 261.807 186.594 261.95 184.656C262.065 183.447 262.044 182.499 261.885 181.813C261.554 180.379 260.859 179.784 259.798 180.029C259.362 180.13 258.892 180.37 258.388 180.749C257.947 181.113 257.769 181.483 257.856 181.857C257.899 182.044 258.045 182.109 258.295 182.051C258.607 181.979 258.964 181.962 259.367 182.001C259.755 181.977 260.11 182.092 260.432 182.346C260.801 182.523 261.058 182.924 261.202 183.547C261.907 186.603 259.881 191.34 255.123 197.759C250.811 203.55 246.993 207.354 243.669 209.172C242.916 209.609 242.04 209.942 241.043 210.173C238.922 210.662 237.049 210.372 235.423 209.303C233.629 208.075 232.525 205.998 232.112 203.072C231.354 198.649 231.84 192.362 233.571 184.212C235.413 175.971 237.892 168.501 241.009 161.805C241.686 160.466 241.551 159.742 240.606 159.632C239.709 159.445 238.647 159.821 237.419 160.762C236.79 161.169 236.126 161.848 235.426 162.798C233.948 163.796 231.303 166.706 227.49 171.527C225.869 173.609 224.286 175.715 222.741 177.845C221.245 179.898 219.818 181.968 218.461 184.055C218.187 184.578 217.864 184.883 217.489 184.969C216.991 185.084 216.662 184.799 216.504 184.113C216.388 183.614 216.419 183.18 216.597 182.811C217.196 179.716 218.028 176.634 219.093 173.564C220.206 170.417 221.63 167.198 223.366 163.907C223.51 163.677 223.553 163.437 223.496 163.188C223.419 163.14 223.201 163.19 222.841 163.339C222.184 163.622 221.69 163.9 221.359 164.174C221.09 164.433 220.898 164.74 220.783 165.095C219.881 166.879 218.944 168.935 217.97 171.262C216.982 173.526 215.966 176.092 214.92 178.961C212.7 184.991 211.225 189.7 210.496 193.086C210.295 193.921 210.348 194.434 210.655 194.626C210.803 194.986 211.206 195.024 211.863 194.741ZM347.764 92.4279C347.846 92.212 347.795 91.9937 347.613 91.7731C347.431 91.5524 347.162 91.3846 346.807 91.2695C346.514 91.14 346.205 91.08 345.879 91.0897C345.553 91.0993 345.294 91.2576 345.102 91.5646C344.828 92.0875 344.43 92.6392 343.907 93.2197C343.433 93.7235 342.773 94.1385 341.929 94.4647C340.955 95.0836 339.427 95.8633 337.345 96.8037C335.312 97.6674 332.978 98.7973 330.344 100.193C327.697 101.527 324.912 103.123 321.991 104.979C319.07 106.836 316.259 109.028 313.558 111.557C310.844 114.023 308.347 116.865 306.069 120.084C303.838 123.226 302.105 126.812 300.867 130.842C300.158 133.173 299.757 135.565 299.666 138.016C299.623 140.39 299.83 142.707 300.286 144.967C300.804 147.212 301.519 149.313 302.431 151.27C303.39 153.15 304.487 154.769 305.72 156.126C306.161 156.616 306.492 156.769 306.713 156.587C306.919 156.342 306.808 156.006 306.381 155.579C305.014 153.925 304.062 152.076 303.524 150.032C302.987 147.989 302.706 145.919 302.682 143.822C302.706 141.649 302.945 139.558 303.401 137.548C303.842 135.475 304.357 133.583 304.947 131.87C306.328 127.611 308.271 123.648 310.775 119.983C313.264 116.255 316.135 112.9 319.387 109.916C322.701 106.917 326.325 104.406 330.258 102.381C334.177 100.294 338.195 98.7752 342.31 97.825C341.706 101.183 340.939 104.973 340.009 109.194C339.079 113.416 338.053 117.791 336.93 122.319C335.871 126.833 334.732 131.431 333.514 136.113C332.358 140.781 331.222 145.247 330.104 149.511C326.982 151.349 323.643 153.532 320.089 156.06C316.52 158.526 312.923 161.295 309.296 164.365C305.656 167.373 302.034 170.607 298.432 174.065C294.892 177.51 291.599 181.029 288.554 184.622C285.522 188.278 282.793 191.962 280.366 195.675C277.939 199.388 276.05 203.01 274.697 206.541C273.46 209.717 272.944 212.463 273.151 214.78C273.372 217.159 274.123 218.989 275.404 220.27C276.622 221.565 278.294 222.263 280.419 222.363C282.544 222.464 284.931 221.847 287.579 220.514C291.291 218.671 294.644 216.551 297.637 214.152C300.645 211.815 303.376 209.28 305.832 206.545C308.35 203.796 310.607 200.911 312.602 197.888C314.66 194.852 316.509 191.765 318.149 188.627C321.367 182.367 324.175 176.037 326.573 169.638C328.957 163.176 331.187 156.618 333.263 149.964C333.719 149.662 334.206 149.353 334.724 149.036C335.228 148.657 335.597 148.408 335.832 148.288C336.302 148.048 336.501 147.772 336.429 147.46C336.42 147.134 336.165 147.028 335.666 147.144C335.23 147.244 334.906 147.122 334.695 146.777C334.532 146.355 334.517 145.865 334.652 145.309C335.52 141.956 336.543 138.14 337.723 133.861C338.888 129.519 340.049 125.015 341.204 120.347C342.408 115.603 343.58 110.866 344.722 106.136C345.849 101.343 346.863 96.774 347.764 92.4279ZM329.788 151.555C329.002 153.838 328.035 156.623 326.889 159.909C325.791 163.119 324.59 166.45 323.285 169.904C322.029 173.281 320.743 176.534 319.429 179.662C318.129 182.852 316.902 185.5 315.746 187.606C314.235 190.451 312.537 193.339 310.652 196.27C308.83 199.186 306.753 201.998 304.422 204.703C302.105 207.471 299.512 210.041 296.644 212.411C293.79 214.843 290.607 216.99 287.096 218.851C284.871 220.022 282.88 220.646 281.124 220.723C279.368 220.8 278.018 220.356 277.073 219.392C276.066 218.442 275.557 216.95 275.547 214.917C275.537 212.883 276.165 210.34 277.432 207.289C279.686 201.974 282.755 196.634 286.64 191.271C290.588 185.893 294.95 180.748 299.728 175.835C304.505 170.923 309.501 166.387 314.714 162.227C319.928 158.068 324.953 154.51 329.788 151.555ZM340.066 166.227C343.462 163.013 347.371 158.465 351.793 152.583C353.99 149.58 355.887 146.843 357.484 144.373C359.144 141.888 360.513 139.568 361.592 137.414C361.688 137.261 361.767 137.177 361.83 137.162C362.329 137.047 362.439 137.383 362.161 138.17C361.475 140.036 360.825 142.058 360.211 144.236C359.66 146.399 359.113 148.726 358.571 151.215C358.13 153.288 357.754 155.641 357.442 158.274C357.131 160.908 356.882 163.527 356.695 166.132C356.522 168.799 356.439 171.282 356.444 173.579C356.511 175.863 356.665 177.666 356.905 178.99C357.217 180.626 357.735 182.017 358.459 183.164C359.26 184.358 360.333 185.161 361.676 185.574C362.832 186.029 364.084 186.331 365.432 186.48C366.794 186.691 368.224 186.624 369.721 186.278C370.718 186.048 371.632 185.738 372.462 185.35C373.306 185.023 374.129 184.604 374.93 184.09C376.532 183.063 378.204 181.627 379.945 179.78C381.748 177.918 383.715 175.625 385.844 172.9C388.104 169.883 389.957 166.959 391.406 164.128C392.916 161.284 394.144 158.635 395.089 156.184C395.238 155.69 395.283 155.318 395.226 155.069C395.197 154.944 395.144 154.858 395.067 154.81C394.88 154.853 394.578 155.251 394.161 156.004C393.11 158.283 391.808 160.751 390.254 163.409C388.763 166.052 386.976 168.698 384.894 171.346C380.573 176.81 376.889 180.485 373.843 182.371C371.833 183.623 369.706 184.508 367.461 185.026C365.216 185.545 363.316 185.425 361.762 184.667C360.222 183.972 359.208 182.564 358.718 180.444C358.646 180.132 358.574 179.82 358.502 179.508C358.445 179.259 358.411 178.971 358.401 178.645C358.233 176.779 358.221 174.45 358.365 171.658C358.508 168.866 358.748 165.921 359.083 162.822C359.467 159.646 359.958 156.511 360.558 153.417C361.143 150.261 361.838 147.44 362.643 144.955C363.679 141.76 364.761 138.62 365.888 135.536C367.063 132.374 368.23 129.182 369.391 125.958C369.425 125.819 369.312 125.615 369.053 125.347C368.794 125.078 368.54 124.973 368.29 125.03C368.041 125.088 367.868 125.193 367.772 125.347C367.417 126.086 366.7 126.678 365.621 127.124C365.51 127.215 364.911 127.321 363.822 127.441C363.016 127.364 362.224 127.35 361.447 127.398C360.656 127.384 359.886 127.463 359.138 127.636C358.452 127.794 357.787 128.046 357.145 128.391C356.55 128.66 355.993 128.953 355.475 129.269C353.274 130.829 351 132.93 348.655 135.573C346.295 138.154 343.892 141.402 341.446 145.317C336.122 153.837 333.971 160.31 334.993 164.738C335.497 166.921 336.528 167.832 338.087 167.472C338.711 167.328 339.37 166.913 340.066 166.227ZM339.727 157.931C340.139 155.734 340.811 153.378 341.741 150.864C342.734 148.336 344.017 145.643 345.59 142.784C348.942 136.821 351.998 133.127 354.756 131.702C355.461 131.342 356.157 131.083 356.843 130.924C358.09 130.636 359.191 130.711 360.145 131.147C361.086 131.521 361.635 132.051 361.793 132.737C361.851 132.987 361.808 133.226 361.664 133.457C358.46 139.779 355.357 145.258 352.354 149.892C349.337 154.464 346.335 158.244 343.347 161.233C342.92 161.66 342.488 161.924 342.052 162.025C340.929 162.284 340.195 161.665 339.85 160.168C339.677 159.42 339.636 158.674 339.727 157.931ZM365.875 159.185C368.302 158.033 369.734 156.98 370.17 156.026C372.856 150.873 375.556 146.21 378.271 142.037C381.048 137.849 383.926 134.097 386.905 130.782C387.331 130.355 387.794 130.084 388.293 129.969C389.416 129.71 390.092 130.079 390.322 131.077C390.409 131.451 390.387 131.784 390.258 132.077C389.025 134.989 387.908 137.973 386.906 141.029C385.951 144.008 385.088 147.097 384.316 150.297C382.331 157.914 381.669 164.012 382.332 168.588C382.941 172.651 384.335 175.416 386.513 176.884C388.509 178.131 390.725 178.342 393.162 177.516C399.973 175.156 405.689 170.322 410.307 163.016C411.986 160.329 413.312 157.823 414.286 155.496C415.259 153.17 415.818 151.037 415.962 149.099C416.077 147.89 416.055 146.943 415.897 146.257C415.566 144.823 414.87 144.228 413.81 144.473C413.373 144.573 412.903 144.813 412.4 145.192C411.958 145.557 411.781 145.926 411.867 146.301C411.91 146.488 412.057 146.552 412.306 146.495C412.618 146.423 412.975 146.406 413.378 146.444C413.767 146.42 414.122 146.535 414.443 146.79C414.813 146.967 415.069 147.368 415.213 147.991C415.919 151.047 413.892 155.784 409.134 162.203C404.822 167.993 401.004 171.798 397.68 173.616C396.927 174.053 396.052 174.386 395.054 174.616C392.934 175.106 391.061 174.816 389.434 173.746C387.64 172.518 386.537 170.441 386.124 167.515C385.365 163.093 385.852 156.806 387.583 148.656C389.424 140.414 391.903 132.945 395.021 126.248C395.697 124.91 395.563 124.185 394.618 124.075C393.72 123.888 392.658 124.265 391.43 125.205C390.802 125.613 390.137 126.292 389.437 127.242C387.96 128.24 385.314 131.149 381.501 135.971C379.88 138.053 378.297 140.159 376.753 142.289C375.256 144.342 373.829 146.412 372.472 148.499C372.199 149.022 371.875 149.326 371.501 149.413C371.002 149.528 370.673 149.243 370.515 148.557C370.4 148.058 370.431 147.624 370.608 147.254C371.208 144.16 372.04 141.078 373.104 138.008C374.217 134.861 375.641 131.642 377.378 128.351C377.521 128.121 377.565 127.881 377.507 127.631C377.43 127.583 377.212 127.634 376.852 127.783C376.195 128.066 375.701 128.344 375.37 128.617C375.101 128.876 374.91 129.184 374.794 129.538C373.893 131.323 372.955 133.379 371.982 135.705C370.994 137.97 369.977 140.536 368.931 143.405C366.711 149.435 365.236 154.143 364.507 157.53C364.306 158.365 364.359 158.878 364.666 159.07C364.815 159.43 365.218 159.468 365.875 159.185ZM423.59 119.948C417.215 121.354 410.905 125.176 404.66 131.412C398.429 137.711 394.539 144.192 392.991 150.856C392.674 152.045 392.617 153.077 392.818 153.95C393.336 156.195 394.718 157.058 396.963 156.54C397.649 156.381 398.22 156.151 398.676 155.849C400.297 154.621 402.237 152.925 404.496 150.761C406.741 148.535 409.353 145.764 412.331 142.449C414.677 139.806 416.627 137.582 418.181 135.779C419.783 133.898 420.999 132.337 421.828 131.094C421.752 131.9 421.697 132.799 421.663 133.792C421.678 134.709 421.651 135.733 421.584 136.865C421.249 144.233 420.739 149.704 420.053 153.278C402.166 161.152 385.464 170.459 369.946 181.201C347.104 196.918 334.602 210.905 332.44 223.162C331.989 225.762 332.03 228.215 332.563 230.523C334.262 237.881 339.568 243.651 348.481 247.834C357.332 252.03 366.19 252.842 375.054 250.27C400.857 242.54 416.902 210.329 423.19 153.637C426.62 151.992 430.568 150.456 435.034 149.031C439.576 147.654 444.685 146.31 450.36 145C451.794 144.669 453.072 144.374 454.195 144.115C455.394 143.904 456.438 143.728 457.325 143.589C460.438 143.133 462.254 144.028 462.772 146.273C463.406 149.017 462.279 152.528 459.391 156.807C458.868 157.388 458.65 157.865 458.737 158.239C458.751 158.302 458.821 158.318 458.945 158.29C459.319 158.203 459.73 157.846 460.176 157.217C462.828 153.912 464.38 151.386 464.83 149.64C464.998 148.944 464.996 148.222 464.823 147.474C464.636 146.663 464.269 145.927 463.722 145.265C463.175 144.603 462.511 144.001 461.729 143.459C461.023 142.965 460.246 142.586 459.397 142.323C458.61 142.045 457.86 141.922 457.145 141.956C456.243 142.033 455.185 142.146 453.972 142.294C452.835 142.491 451.487 142.77 449.928 143.129C441.447 145.087 432.63 148.01 423.478 151.896C424.115 145.837 424.631 140.529 425.024 135.972C425.479 131.401 425.86 127.503 426.167 124.279C426.555 123.402 426.725 122.574 426.677 121.797C426.562 121.298 426.236 120.881 425.699 120.545C425.224 120.195 424.722 120.015 424.195 120.006C424.041 119.91 423.84 119.89 423.59 119.948ZM335.268 225.169C337.008 213.929 346.98 201.216 365.183 187.03C380.312 175.458 398.585 164.704 420.003 154.767C419.203 163.819 417.92 172.49 416.156 180.78C414.454 189.055 412.298 197.073 409.689 204.835C401.177 229.986 389.44 244.585 374.479 248.63C365.897 251.005 357.533 250.342 349.388 246.639C341.674 243.1 337.054 238.025 335.528 231.415C335.067 229.419 334.98 227.337 335.268 225.169ZM420.152 131.087C419.164 132.497 417.876 134.174 416.288 136.117C414.749 137.983 412.909 140.116 410.77 142.514C405.46 148.535 402.151 151.697 400.841 151.999C399.344 152.344 398.366 151.519 397.905 149.524C397.833 149.212 397.775 148.963 397.732 148.776C397.751 148.574 397.756 148.31 397.747 147.984C398.164 143.816 400.31 139.313 404.185 134.478C407.883 130.011 411.886 126.723 416.194 124.611C418.247 123.546 419.645 123.059 420.388 123.15C420.839 123.112 421.194 123.654 421.454 124.776C421.406 124.853 421.403 124.985 421.446 125.172C421.461 125.235 421.468 125.266 421.468 125.266C421.53 125.251 421.569 125.275 421.583 125.338C421.914 127.626 421.437 129.542 420.152 131.087ZM454.549 128.269C454.851 127.871 455.052 127.463 455.153 127.046C455.254 126.629 455.251 126.334 455.146 126.161C455.102 125.974 454.963 125.94 454.728 126.06C454.493 126.18 454.16 126.585 453.728 127.276C453.042 128.289 452.025 129.574 450.678 131.133C449.33 132.693 447.857 134.28 446.26 135.897C444.663 137.514 443.068 138.999 441.475 140.352C439.945 141.69 438.617 142.621 437.489 143.144C436.895 143.413 436.261 143.657 435.59 143.878C434.966 144.022 434.393 143.957 433.87 143.684C433.347 143.411 432.992 142.869 432.805 142.058C432.666 141.17 432.79 139.861 433.179 138.129C433.567 136.397 433.797 135.26 433.869 134.718C434.003 134.162 434.08 133.783 434.099 133.581C434.119 133.38 434.138 133.178 434.157 132.977C434.224 132.699 434.392 132.003 434.66 130.89C434.929 129.777 435.38 128.031 436.013 125.652C436.694 123.196 437.633 119.727 438.832 115.247C439.134 113.995 439.082 113.055 438.674 112.426C438.266 111.798 437.76 111.455 437.155 111.397C436.551 111.34 435.973 111.539 435.421 111.995C434.855 112.388 434.596 112.973 434.644 113.751C434.64 114.014 434.517 114.765 434.278 116.003C434.023 117.178 433.702 118.632 433.314 120.363C432.911 122.033 432.489 123.904 432.048 125.976C431.592 127.986 431.199 129.982 430.868 131.963C430.523 133.882 430.288 135.709 430.164 137.446C430.025 139.12 430.071 140.456 430.301 141.454C430.56 142.576 431.064 143.478 431.812 144.159C432.609 144.763 433.438 145.229 434.302 145.555C435.213 145.804 436.058 145.905 436.835 145.857C437.674 145.794 438.267 145.657 438.612 145.446C439.84 144.506 441.26 143.259 442.871 141.704C444.483 140.15 446.049 138.54 447.57 136.876C449.138 135.134 450.534 133.498 451.757 131.968C453.042 130.423 453.973 129.19 454.549 128.269ZM441.983 100.726C442.04 100.122 441.699 99.6419 440.961 99.287C440.27 98.8553 439.596 98.781 438.939 99.0641C438.109 99.4528 437.15 100.561 436.061 102.389C434.958 104.154 434.507 105.473 434.708 106.346C434.896 107.157 435.704 107.529 437.133 107.461C438.112 107.433 439.136 106.605 440.206 104.979C441.448 103.247 442.04 101.829 441.983 100.726ZM479.56 101.805C478.427 101.738 477.41 101.742 476.509 101.819C475.655 101.819 474.885 101.899 474.199 102.057C473.513 102.215 472.849 102.467 472.206 102.813C471.611 103.081 471.055 103.374 470.537 103.691C466.292 106.641 461.584 111.998 456.413 119.76C450.667 128.443 448.277 134.873 449.241 139.051C449.731 141.172 451.129 141.965 453.436 141.433C453.686 141.375 453.983 141.241 454.329 141.03C457.945 138.487 462.217 133.658 467.142 126.544C469.339 123.541 471.239 120.672 472.84 117.938C474.428 115.141 475.802 112.557 476.963 110.188C477.092 109.895 477.251 109.727 477.438 109.684C478.124 109.526 478.402 110.02 478.272 111.166C476.858 121.542 476.569 128.539 477.404 132.155C477.605 133.029 477.886 133.818 478.246 134.523C478.668 135.213 479.093 135.772 479.52 136.199C480.378 136.789 481.107 136.818 481.707 136.285C481.942 136.165 482.141 135.89 482.304 135.458C482.405 135.04 482.285 134.805 481.944 134.753C481.618 134.762 481.33 134.796 481.081 134.853C480.817 134.849 480.553 134.844 480.289 134.839C479.814 134.489 479.548 134.189 479.491 133.94C477.917 127.406 478.743 117.757 481.97 104.992C482.723 101.994 483.505 99.1204 484.315 96.3716C485.111 93.5605 485.922 90.8117 486.747 88.1253C487.821 87.9429 488.888 87.7294 489.949 87.4846C491.009 87.2399 492.131 86.9807 493.316 86.7072C517.324 81.1644 540.51 69.6374 562.872 52.1263C568.887 47.4534 573.139 42.3994 575.628 36.9641C577.858 32.1141 578.44 27.3819 577.375 22.7672C575.979 16.7183 572.22 12.1016 566.098 8.91694C559.637 5.67957 552.446 4.97509 544.526 6.80349C539.724 7.91205 535.093 9.90084 530.632 12.7699C517.206 21.1899 505.462 36.184 495.4 57.7523C494.383 59.8918 493.354 62.2641 492.314 64.8689C491.259 67.4114 490.136 70.2322 488.947 73.3312L488.76 73.3743C482.889 76.1092 478.838 79.4747 476.608 83.4708C476.272 84.0081 476.176 84.5885 476.32 85.2121C476.55 86.2099 477.117 87.0973 478.018 87.8743C478.906 88.589 479.801 88.9079 480.702 88.8311C481.168 88.855 481.626 88.8478 482.077 88.8093C482.59 88.7565 483.103 88.7037 483.617 88.6509C482.974 90.7041 482.315 92.8268 481.638 95.0191C480.962 97.2114 480.269 99.4732 479.56 101.805ZM531.452 13.7628C535.338 10.961 539.588 9.02737 544.202 7.962C551.187 6.34955 557.73 6.80945 563.832 9.34169C569.891 11.6869 573.546 15.5721 574.799 20.9974C576.728 29.3536 572.071 38.7705 560.828 49.2482C541.498 67.3731 518.831 79.4373 492.827 85.4408C491.766 85.6856 490.8 85.9087 489.927 86.1103C489.054 86.3118 488.174 86.4822 487.286 86.6214C498.45 51.3336 513.172 27.0474 531.452 13.7628ZM454.062 132.618C454.762 128.253 456.958 123.115 460.651 117.205C462.536 114.274 464.28 111.868 465.882 109.987C467.546 108.092 469.146 106.771 470.681 106.022C471.448 105.648 472.237 105.367 473.048 105.18C475.293 104.662 476.581 105.12 476.912 106.554C477.07 107.24 476.883 108.137 476.351 109.245C473.569 114.551 470.61 119.372 467.473 123.709C464.336 128.046 461.02 132.03 457.523 135.662C457.096 136.089 456.633 136.36 456.134 136.475C455.074 136.72 454.386 136.156 454.069 134.784C453.896 134.036 453.894 133.314 454.062 132.618ZM480.566 87.3848C479.15 87.5144 478.321 87.0492 478.076 85.9891C477.917 85.3031 478.006 84.6915 478.342 84.1542C479.291 82.2929 480.596 80.5466 482.256 78.9155C483.915 77.2844 486.031 75.7779 488.602 74.3961C487.93 76.3246 487.218 78.361 486.465 80.5053C485.76 82.5729 485.015 84.7484 484.228 87.0318C483.528 87.1279 482.859 87.2167 482.221 87.2983C481.645 87.3655 481.093 87.3943 480.566 87.3848Z" fill="#6D6D6D" fill-opacity="0.31"/>
</svg>
