<svg width="61" height="61" viewBox="0 0 61 61" fill="none" xmlns="http://www.w3.org/2000/svg">
<path d="M30.4762 4.54517C15.7444 4.53921 3.8125 16.4652 3.8125 31.185C3.8125 42.8251 11.2767 52.7197 21.6717 56.3535C23.0716 56.7049 22.8571 55.7101 22.8571 55.031V50.4143C14.7734 51.3615 14.4458 46.0121 13.9037 45.1185C12.8076 43.248 10.2163 42.7714 10.9907 41.8779C12.8314 40.9307 14.7079 42.1162 16.8822 45.327C18.4549 47.6562 21.5228 47.263 23.0775 46.8758C23.4171 45.4759 24.1438 44.2249 25.1446 43.254C16.769 41.7528 13.2782 36.6417 13.2782 30.5655C13.2782 27.6167 14.2492 24.9063 16.1555 22.7201C14.9402 19.1161 16.2687 16.0303 16.4474 15.5716C19.9084 15.2619 23.5064 18.0498 23.7864 18.2702C25.7522 17.74 27.998 17.46 30.5119 17.46C33.0377 17.46 35.2895 17.7519 37.2731 18.288C37.9463 17.7757 41.2822 15.381 44.499 15.6729C44.6718 16.1316 45.9704 19.1459 44.8267 22.7022C46.7567 24.8944 47.7397 27.6287 47.7397 30.5834C47.7397 36.6714 44.225 41.7885 35.8256 43.2659C36.545 43.9734 37.1163 44.8172 37.506 45.7479C37.8956 46.6787 38.096 47.6777 38.0952 48.6868V55.3884C38.1429 55.9246 38.0952 56.4547 38.9888 56.4547C49.5387 52.8984 57.1339 42.9323 57.1339 31.191C57.1339 16.4652 45.196 4.54517 30.4762 4.54517Z" fill="white"/>
</svg>
