<svg width="65" height="65" viewBox="0 0 65 65" fill="none" xmlns="http://www.w3.org/2000/svg">
<path d="M32.5 24.0385C27.8408 24.0385 24.0386 27.8408 24.0386 32.4999C24.0386 37.1591 27.8408 40.9614 32.5 40.9614C37.1592 40.9614 40.9614 37.1591 40.9614 32.4999C40.9614 27.8408 37.1592 24.0385 32.5 24.0385ZM57.8779 32.4999C57.8779 28.996 57.9097 25.5239 57.7129 22.0263C57.5161 17.9638 56.5894 14.3583 53.6186 11.3876C50.6416 8.41058 47.0425 7.49017 42.98 7.29339C39.4761 7.09661 36.0039 7.12835 32.5063 7.12835C29.0024 7.12835 25.5303 7.09661 22.0327 7.29339C17.9702 7.49017 14.3647 8.41693 11.394 11.3876C8.41699 14.3647 7.49658 17.9638 7.2998 22.0263C7.10302 25.5302 7.13476 29.0024 7.13476 32.4999C7.13476 35.9975 7.10302 39.476 7.2998 42.9736C7.49658 47.0361 8.42334 50.6415 11.394 53.6122C14.3711 56.5893 17.9702 57.5097 22.0327 57.7065C25.5366 57.9033 29.0088 57.8715 32.5063 57.8715C36.0102 57.8715 39.4824 57.9033 42.98 57.7065C47.0425 57.5097 50.6479 56.5829 53.6186 53.6122C56.5957 50.6352 57.5161 47.0361 57.7129 42.9736C57.916 39.476 57.8779 36.0038 57.8779 32.4999ZM32.5 45.519C25.2954 45.519 19.481 39.7045 19.481 32.4999C19.481 25.2953 25.2954 19.4809 32.5 19.4809C39.7046 19.4809 45.519 25.2953 45.519 32.4999C45.519 39.7045 39.7046 45.519 32.5 45.519ZM46.0522 21.9882C44.3701 21.9882 43.0117 20.6298 43.0117 18.9477C43.0117 17.2656 44.3701 15.9072 46.0522 15.9072C47.7344 15.9072 49.0928 17.2656 49.0928 18.9477C49.0933 19.3471 49.015 19.7427 48.8623 20.1118C48.7097 20.481 48.4858 20.8163 48.2033 21.0988C47.9209 21.3812 47.5855 21.6052 47.2164 21.7578C46.8473 21.9104 46.4517 21.9887 46.0522 21.9882Z" fill="white"/>
</svg>
