<svg width="49" height="49" viewBox="0 0 49 49" fill="none" xmlns="http://www.w3.org/2000/svg">
<path d="M28.2182 20.5399C26.1815 18.504 23.4197 17.3604 20.5399 17.3604C17.6602 17.3604 14.8984 18.504 12.8617 20.5399L5.18095 28.2181C3.14422 30.2548 2 33.0172 2 35.8976C2 38.778 3.14422 41.5404 5.18095 43.5771C7.21768 45.6138 9.98007 46.758 12.8604 46.758C15.7408 46.758 18.5032 45.6138 20.5399 43.5771L24.3791 39.738" stroke="white" stroke-width="3" stroke-linecap="round" stroke-linejoin="round"/>
<path d="M20.5399 28.2182C22.5766 30.254 25.3384 31.3977 28.2182 31.3977C31.0979 31.3977 33.8597 30.254 35.8964 28.2182L43.5772 20.5399C45.6139 18.5032 46.7581 15.7408 46.7581 12.8604C46.7581 9.98007 45.6139 7.21768 43.5772 5.18095C41.5404 3.14422 38.778 2 35.8977 2C33.0173 2 30.2549 3.14422 28.2182 5.18095L24.379 9.02007" stroke="white" stroke-width="3" stroke-linecap="round" stroke-linejoin="round"/>
</svg>
