<svg width="47" height="47" viewBox="0 0 47 47" fill="none" xmlns="http://www.w3.org/2000/svg">
<g clip-path="url(#clip0_119_33)">
<path d="M40.046 40.0466H33.0821V29.1406C33.0821 26.54 33.0357 23.1922 29.4602 23.1922C25.8331 23.1922 25.2781 26.0258 25.2781 28.9513V40.0459H18.3144V17.6188H24.9996V20.6837H25.0932C25.7623 19.5398 26.729 18.5987 27.8906 17.9607C29.0522 17.3227 30.3651 17.0117 31.6894 17.0609C38.7476 17.0609 40.049 21.7036 40.049 27.7435L40.046 40.0466ZM10.4566 14.5533C8.22463 14.5537 6.41495 12.7446 6.41458 10.5126C6.41422 8.28069 8.22316 6.471 10.4551 6.47063C12.6871 6.47008 14.4967 8.27922 14.4971 10.5112C14.4973 11.583 14.0717 12.611 13.314 13.3691C12.5562 14.1271 11.5284 14.5531 10.4566 14.5533ZM13.9386 40.0468H6.96738V17.6188H13.9384V40.0466L13.9386 40.0468ZM43.5178 0.00317656H3.46809C1.57523 -0.0181203 0.0229497 1.49818 -0.000183105 3.39103V43.6078C0.0222153 45.5016 1.57432 47.0193 3.4679 46.9995H43.5178C45.4154 47.023 46.9736 45.5052 46.9998 43.6078V3.38791C46.9728 1.49139 45.4145 -0.0247297 43.5178 5.54646e-05" fill="white"/>
</g>
<defs>
<clipPath id="clip0_119_33">
<rect width="47" height="47" fill="white"/>
</clipPath>
</defs>
</svg>
