<svg width="623" height="275" viewBox="0 0 623 275" fill="none" xmlns="http://www.w3.org/2000/svg">
<path d="M30.2201 229.37C25.2651 232.944 23.2196 236.602 24.0834 240.344C25.0048 244.335 28.2238 246.613 33.7404 247.179C37.4581 247.634 41.7178 247.308 46.5195 246.199C49.7622 245.45 52.8082 244.419 55.6575 243.104C58.5692 241.775 61.3225 240.187 63.9175 238.34C69.9421 233.993 72.2346 228.702 70.7949 222.466C70.0895 219.41 68.5254 216.619 66.1027 214.091C66.7598 213.808 68.6402 213.275 71.7438 212.493C73.9743 211.912 75.0536 211.466 74.9816 211.154C74.9241 210.905 74.5523 210.859 73.8663 211.018C71.9476 211.526 70.2087 211.961 68.6497 212.32C67.1531 212.666 65.8747 212.961 64.8146 213.206C59.9213 209.081 55.63 205.572 51.9408 202.68C48.2996 199.711 45.3157 197.313 42.9889 195.485C38.8823 191.639 36.4835 188.219 35.7925 185.225C34.9287 181.484 36.0652 177.871 39.2021 174.389C45.3416 167.125 54.1796 162.162 65.7162 159.499C67.8364 159.009 69.8535 158.642 71.7675 158.397C73.6815 158.152 75.5067 158.092 77.2433 158.217C80.0975 158.346 82.5656 159.221 84.6477 160.842C86.912 162.684 88.4041 165.164 89.124 168.282C89.3687 169.342 89.5055 170.361 89.5344 171.34C89.6112 172.242 89.7096 172.81 89.8296 173.045C89.9639 173.343 90.0886 173.314 90.2037 172.959C90.3956 172.652 90.5443 172.158 90.6497 171.477C90.8079 170.455 90.8486 169.493 90.7718 168.591C90.7429 167.613 90.6277 166.687 90.4261 165.814C89.8071 163.132 88.4445 160.787 86.3384 158.777C84.194 157.17 81.9057 156.221 79.4736 155.928C76.2644 155.684 72.3837 156.087 67.8314 157.138C55.4218 160.003 45.2863 165.463 37.4248 173.518C33.7074 177.332 32.3311 181.328 33.2957 185.506C34.1739 189.31 36.9685 193.164 41.6795 197.069C45.6853 200.479 49.3313 203.611 52.6176 206.465C55.8894 209.256 58.9093 211.81 61.6774 214.127C55.0722 216.243 49.1457 218.597 43.898 221.188C38.6983 223.702 34.139 226.429 30.2201 229.37ZM62.7281 215.264C65.4386 217.331 67.1538 219.924 67.8736 223.042C68.9678 227.781 67.0638 232.195 62.1616 236.282C59.6722 238.302 57.0172 240.031 54.1967 241.471C51.3618 242.848 48.2918 243.918 44.9867 244.681C43.0536 245.127 41.1612 245.466 39.3096 245.696C37.4579 245.926 35.5703 246.001 33.6467 245.92C32.1261 245.877 30.6893 245.486 29.3365 244.747C27.384 243.687 26.2566 242.502 25.9543 241.193C25.3064 238.387 27.3232 235.031 32.0048 231.126C36.1682 227.537 41.7876 224.138 48.8629 220.928C50.5226 220.151 52.4941 219.302 54.7773 218.38C57.1086 217.382 59.7588 216.344 62.7281 215.264ZM79.4758 239.576C84.7763 237.498 90.3475 232.468 96.1895 224.485C99.1968 220.441 101.295 216.869 102.485 213.77C103.722 210.595 104.161 207.8 103.801 205.388C103.772 205.263 103.705 205.114 103.599 204.941C103.493 204.769 103.388 204.596 103.282 204.423C103.114 204.265 103.071 204.078 103.153 203.862C103.541 202.984 104.702 202.322 106.635 201.876C107.571 201.66 107.995 201.365 107.909 200.991C107.88 200.866 107.383 200.849 106.419 200.94C103.786 201.483 101.433 201.96 99.3606 202.373C97.3507 202.771 95.6215 203.105 94.1728 203.374C94.0337 203.34 93.8945 203.307 93.7554 203.273C93.6787 203.225 93.5707 203.184 93.4316 203.151C91.3497 202.383 89.817 202.146 88.8336 202.439C87.4761 202.818 86.2626 203.821 85.193 205.447C84.8141 205.797 84.4999 206.001 84.2504 206.059C84.1881 206.073 83.0104 206.378 80.7175 206.973C79.2976 207.366 78.5302 207.74 78.4151 208.095C78.3 208.45 78.264 208.721 78.3072 208.909C78.3936 209.283 78.7678 209.623 79.4298 209.93C80.0774 210.175 80.7178 210.388 81.3511 210.57C81.754 210.609 81.8812 210.875 81.7325 211.369C75.8333 223.372 73.4188 231.975 74.4891 237.18C74.6042 237.679 74.8369 238.118 75.1871 238.497C75.5997 238.861 76.0291 239.156 76.4752 239.382C76.9837 239.593 77.5018 239.703 78.0295 239.713C78.5715 239.784 79.0536 239.739 79.4758 239.576ZM77.0217 234.92C78.6518 225.48 82.0904 216.902 87.3376 209.188C88.129 208.349 88.5943 207.946 88.7334 207.979C89.7551 207.284 90.9063 206.722 92.1871 206.295C93.4535 205.806 94.8566 205.482 96.3964 205.323C99.2745 204.987 100.711 205.805 100.707 207.777C100.822 212.545 98.4028 218.424 93.4481 225.414C88.7765 232.207 84.3996 236.436 80.3175 238.101C78.4084 238.935 77.281 238.604 76.9355 237.108C76.7772 236.422 76.8059 235.693 77.0217 234.92ZM138.93 194.913C139.045 194.558 139.007 194.107 138.815 193.56C138.671 192.936 138.417 192.404 138.052 191.963C137.673 191.459 137.244 191.164 136.764 191.078C136.284 190.991 135.829 191.294 135.397 191.984C133.915 194.1 132.253 196.717 130.411 199.835C128.57 202.953 126.617 206.163 124.555 209.463C122.555 212.749 120.471 215.956 118.303 219.084C116.183 222.135 114.08 224.69 111.993 226.748C110.636 227.981 109.473 228.348 108.504 227.849C107.583 227.274 107.201 225.621 107.359 222.892C107.407 221.107 107.733 218.963 108.337 216.459C109.004 213.94 109.78 211.331 110.668 208.63C111.555 205.929 112.512 203.245 113.538 200.578C114.627 197.896 115.687 195.517 116.718 193.44C117.106 192.562 117.226 191.943 117.077 191.583C116.914 191.161 116.631 190.931 116.228 190.892C115.825 190.854 115.365 190.993 114.847 191.31C114.377 191.55 114.029 191.893 113.803 192.339C113.209 193.462 112.523 194.901 111.746 196.656C111.017 198.335 110.238 200.223 109.408 202.32C108.578 204.416 107.777 206.637 107.005 208.983C106.281 211.252 105.619 213.507 105.02 215.747C104.468 217.91 104.066 220.007 103.812 222.036C103.62 224.051 103.627 225.789 103.834 227.252C104.069 228.84 104.846 230.073 106.165 230.951C107.47 231.766 108.9 231.699 110.454 230.749C111.38 230.207 112.677 228.856 114.346 226.697C116.063 224.462 117.886 221.972 119.814 219.228C121.728 216.422 123.61 213.622 125.462 210.83C127.361 207.962 128.886 205.606 130.038 203.764C130.901 202.382 131.592 201.96 132.11 202.497C132.613 202.972 132.786 203.72 132.628 204.742C132.436 205.903 132.204 207.172 131.93 208.549C131.705 209.849 131.518 211.173 131.37 212.521C131.221 213.869 131.142 215.233 131.132 216.615C131.185 217.982 131.349 219.258 131.622 220.443C131.766 221.067 132.066 221.654 132.522 222.206C133.025 222.681 133.553 223.117 134.105 223.515C134.704 223.837 135.314 224.057 135.933 224.177C136.551 224.297 137.033 224.251 137.379 224.04C138.118 223.541 138.859 222.91 139.602 222.148C140.394 221.308 141.022 220.473 141.487 219.643C142.077 218.785 142.252 218.12 142.012 217.65C141.82 217.103 141.305 217.288 140.465 218.204C140.149 218.54 139.715 218.936 139.163 219.392C138.597 219.785 138.11 220.095 137.702 220.32C137.295 220.546 136.856 220.778 136.386 221.018C135.978 221.244 135.611 221.361 135.285 221.371C134.944 221.318 134.623 221.064 134.32 220.608C134.081 220.138 133.925 219.32 133.852 218.155C133.752 216.864 133.859 215.197 134.176 213.154C134.492 211.11 134.895 209.014 135.384 206.865C135.921 204.639 136.504 202.468 137.132 200.353C137.76 198.237 138.36 196.424 138.93 194.913ZM143.973 224.291C144.668 223.605 145.292 223.034 145.843 222.579C146.409 222.185 146.92 221.837 147.376 221.535C147.817 221.17 148.016 220.895 147.973 220.708C152.471 207.189 158.745 196.808 166.793 189.564C168.655 187.952 170.273 187.282 171.65 187.556C171.866 187.637 172.116 187.58 172.399 187.383C172.667 187.124 172.897 186.841 173.089 186.534C173.329 186.15 173.507 185.781 173.622 185.426C173.785 184.994 173.845 184.684 173.801 184.497C173.787 184.435 173.741 184.38 173.665 184.332C172.629 184.111 171.151 184.255 169.232 184.764C167.203 186.218 164.568 189.027 161.325 193.191C158.179 197.201 155.728 200.953 153.972 204.445C153.843 204.738 153.526 205.074 153.023 205.453C152.394 205.86 152.044 205.908 151.972 205.597C151.915 205.347 151.936 205.014 152.037 204.596C152.406 203.066 153.046 201.145 153.958 198.833C154.917 196.444 156.077 193.647 157.439 190.442C157.679 190.059 157.631 189.708 157.295 189.392C157.099 189.109 156.813 189.011 156.439 189.097C156.252 189.14 156.142 189.231 156.108 189.37C152.727 192.647 150.69 194.496 150 194.919C149.98 195.12 150.031 195.338 150.151 195.573C150.467 196.092 150.64 196.413 150.669 196.538C150.813 197.161 150.806 197.984 150.648 199.006C149.631 204.561 147.178 212.713 143.289 223.464C143.174 223.819 143.215 224.138 143.411 224.421C143.56 224.781 143.747 224.737 143.973 224.291ZM168.511 216.064C171.907 212.85 175.816 208.302 180.239 202.421C182.435 199.418 184.332 196.681 185.929 194.21C187.589 191.725 188.958 189.406 190.037 187.252C190.133 187.098 190.212 187.014 190.275 187C190.774 186.885 190.884 187.22 190.606 188.007C189.92 189.873 189.27 191.895 188.656 194.073C188.105 196.237 187.558 198.563 187.017 201.053C186.575 203.125 186.199 205.478 185.888 208.112C185.576 210.745 185.327 213.365 185.14 215.969C184.967 218.637 184.884 221.119 184.889 223.417C184.956 225.7 185.11 227.504 185.35 228.828C185.662 230.463 186.18 231.855 186.904 233.001C187.706 234.195 188.778 234.999 190.121 235.411C191.277 235.867 192.529 236.169 193.877 236.317C195.24 236.528 196.669 236.461 198.166 236.116C199.163 235.885 200.077 235.576 200.907 235.187C201.751 234.861 202.574 234.441 203.375 233.928C204.977 232.901 206.649 231.464 208.39 229.617C210.193 227.756 212.16 225.463 214.29 222.738C216.549 219.72 218.402 216.796 219.851 213.966C221.362 211.121 222.589 208.473 223.534 206.022C223.683 205.527 223.728 205.156 223.671 204.906C223.642 204.782 223.589 204.695 223.513 204.647C223.325 204.69 223.023 205.089 222.606 205.842C221.556 208.12 220.254 210.589 218.7 213.246C217.208 215.89 215.421 218.535 213.34 221.183C209.018 226.648 205.334 230.323 202.288 232.208C200.279 233.46 198.151 234.345 195.906 234.864C193.661 235.382 191.762 235.262 190.207 234.505C188.667 233.809 187.653 232.401 187.163 230.281C187.091 229.969 187.019 229.657 186.947 229.346C186.89 229.096 186.856 228.808 186.846 228.482C186.678 226.616 186.666 224.287 186.81 221.495C186.953 218.703 187.193 215.758 187.529 212.659C187.912 209.484 188.403 206.349 189.003 203.255C189.588 200.098 190.283 197.277 191.089 194.792C192.124 191.598 193.206 188.458 194.333 185.373C195.508 182.212 196.676 179.019 197.836 175.796C197.87 175.657 197.757 175.453 197.498 175.184C197.239 174.915 196.985 174.81 196.735 174.868C196.486 174.925 196.313 175.031 196.217 175.184C195.862 175.923 195.145 176.515 194.066 176.962C193.956 177.053 193.356 177.158 192.267 177.278C191.461 177.202 190.67 177.187 189.893 177.236C189.101 177.221 188.331 177.3 187.583 177.473C186.897 177.632 186.232 177.883 185.59 178.229C184.995 178.498 184.438 178.79 183.92 179.107C181.719 180.666 179.445 182.767 177.1 185.411C174.74 187.992 172.337 191.24 169.891 195.154C164.567 203.674 162.416 210.148 163.438 214.575C163.942 216.758 164.973 217.669 166.532 217.309C167.156 217.166 167.816 216.751 168.511 216.064ZM168.172 207.768C168.585 205.571 169.256 203.216 170.186 200.702C171.179 198.174 172.462 195.48 174.035 192.621C177.388 186.658 180.443 182.964 183.201 181.539C183.906 181.179 184.602 180.92 185.288 180.762C186.535 180.474 187.636 180.548 188.59 180.984C189.531 181.359 190.08 181.889 190.238 182.575C190.296 182.824 190.253 183.064 190.109 183.294C186.905 189.617 183.802 195.095 180.8 199.73C177.783 204.301 174.78 208.082 171.792 211.07C171.365 211.497 170.933 211.761 170.497 211.862C169.374 212.121 168.64 211.503 168.295 210.006C168.122 209.258 168.081 208.512 168.172 207.768ZM201.861 177.527C201.909 177.45 201.926 177.38 201.912 177.318C201.892 177.519 201.849 177.759 201.782 178.037L201.739 177.85L201.667 177.966C201.681 178.028 201.665 178.097 201.617 178.174C201.554 178.189 201.53 178.227 201.545 178.289C201.545 178.289 201.566 178.383 201.61 178.57C201.619 178.896 201.562 179.074 201.437 179.102C200.368 184.998 199.435 190.205 198.639 194.724C197.843 199.243 197.153 203.081 196.568 206.237C196.146 207.254 195.882 208.103 195.777 208.784C195.892 209.283 196.156 209.715 196.568 210.08C197.043 210.43 197.545 210.61 198.072 210.619C198.351 210.686 198.552 210.705 198.677 210.677C205.129 209.318 211.657 205.447 218.262 199.061C224.819 192.753 229.207 186.156 231.428 179.272C231.562 178.716 231.672 178.198 231.759 177.718C231.831 177.176 231.878 176.672 231.902 176.207C231.432 173.885 230.137 172.969 228.017 173.459C227.268 173.631 226.673 173.9 226.232 174.265C224.596 175.431 222.563 177.148 220.131 179.417C217.747 181.61 214.972 184.385 211.806 187.743C209.211 190.444 207.051 192.749 205.324 194.659C203.583 196.506 202.297 198.051 201.468 199.293C201.544 198.487 201.607 197.619 201.654 196.688C201.75 195.681 201.925 194.59 202.179 193.414C202.606 189.572 203.061 186.281 203.546 183.542C204.03 180.803 204.521 178.522 205.02 176.699C214.081 172.702 222.9 168.367 231.477 163.694C240.053 159.021 248.436 153.933 256.624 148.43C280.242 132.665 293.711 118.455 297.029 105.8C297.667 103.157 297.821 100.691 297.489 98.403C296.524 90.8095 291.835 84.864 283.42 80.5667C275.131 76.2406 266.522 75.3707 257.595 77.9571C231.606 85.7307 213.052 118.455 201.933 176.131L202.084 176.785C202.219 176.229 202.238 176.028 202.142 176.181C202.108 176.32 202.072 176.591 202.034 176.994C201.986 177.071 201.928 177.248 201.861 177.527ZM294.482 103.728C291.725 115.399 280.849 128.321 261.854 142.493C245.929 154.315 227.064 165.206 205.257 175.166C208.369 156.779 213.21 139.766 219.78 124.127C230.255 98.654 242.989 83.8253 257.984 79.6409C266.767 77.2847 274.913 77.9987 282.42 81.7828C289.683 85.3607 293.804 90.5507 294.784 97.3527C294.841 98.456 294.861 99.5354 294.842 100.591C294.808 101.584 294.688 102.629 294.482 103.728ZM202.957 199.343C204.147 197.952 205.566 196.278 207.216 194.32C208.866 192.363 210.854 190.163 213.181 187.722C218.879 181.677 222.414 178.496 223.786 178.179C225.283 177.834 226.192 178.642 226.513 180.604L226.485 182.187C225.756 186.428 223.267 191.009 219.017 195.931C216.988 198.239 214.926 200.258 212.83 201.99C210.781 203.645 208.63 204.996 206.376 206.042C204.231 206.997 202.826 207.453 202.159 207.41C201.646 207.462 201.382 207.031 201.367 206.114L201.188 205.762C201.236 205.685 201.252 205.616 201.238 205.553C201.223 205.491 201.24 205.421 201.288 205.344C201.274 205.282 201.235 205.258 201.173 205.273C201.173 205.273 201.166 205.241 201.152 205.179C201.146 202.881 201.748 200.936 202.957 199.343ZM246.2 157.044C247.212 156.876 248.256 156.7 249.33 156.518C250.39 156.273 251.45 156.028 252.511 155.784C276.831 150.169 300.165 138.575 322.512 121.001C328.638 116.237 332.89 111.183 335.269 105.839C337.499 100.989 338.081 96.2568 337.016 91.6422C335.619 85.5933 331.86 80.9766 325.739 77.7919C319.34 74.5402 312.149 73.8357 304.167 75.6785C299.365 76.787 294.734 78.7758 290.273 81.6449C281.903 86.9272 274.242 94.5743 267.293 104.586C260.391 114.522 254.093 127.076 248.401 142.249C242.592 144.97 238.534 148.304 236.227 152.252C236.097 152.545 235.999 152.83 235.932 153.109C235.865 153.387 235.874 153.713 235.961 154.087C236.162 154.96 236.714 155.785 237.616 156.562C238.518 157.339 239.427 157.721 240.343 157.706C240.933 157.701 241.454 157.68 241.905 157.641C242.418 157.588 242.838 157.557 243.164 157.547C240.459 166.317 238.102 174.316 236.093 181.545C234.132 188.698 232.516 195.212 231.245 201.089C231.226 201.29 231.252 201.547 231.324 201.859C231.554 202.856 231.919 203.298 232.418 203.182C232.605 203.139 232.725 202.947 232.778 202.607C233.166 201.729 233.452 201.4 233.634 201.621C235.663 197.606 238.713 192.468 242.785 186.207C247.639 178.781 251.596 173.729 254.656 171.052C255.241 170.457 255.815 170.095 256.376 169.966C257.311 169.75 257.88 170.078 258.081 170.951C258.197 171.45 258.165 171.884 257.988 172.254C254.17 180.754 252.238 187.605 252.19 192.805C252.21 194.311 253.066 195.46 254.759 196.251C256.203 197.1 257.487 197.395 258.609 197.136C262.226 196.301 267.325 191.642 273.905 183.161L274.409 182.355C274.332 182.307 274.294 182.283 274.294 182.283C274.279 182.22 274.234 182.165 274.157 182.117C274.109 182.194 273.999 182.285 273.826 182.391C273.716 182.482 273.582 182.611 273.423 182.779C267.711 189.616 263.327 193.386 260.271 194.092C258.587 194.481 257.558 193.864 257.184 192.243C256.666 189.998 257.294 185.748 259.068 179.492C259.845 176.883 260.617 174.537 261.384 172.455C262.137 170.311 262.892 168.461 263.65 166.907C263.698 166.83 263.693 166.667 263.636 166.418C263.521 165.919 263.132 165.516 262.47 165.209C261.794 164.84 261.276 164.729 260.916 164.878C258.863 165.943 257.748 166.66 257.57 167.03C255.555 167.692 252.205 170.961 247.519 176.838C245.61 179.381 243.763 181.909 241.979 184.423C240.195 186.937 238.535 189.422 237 191.878C236.329 192.952 235.809 193.828 235.439 194.504C235.07 195.181 234.758 195.68 234.504 196.001C236.528 188.834 238.506 182.039 240.438 175.616C242.371 169.192 244.292 163.002 246.2 157.044ZM246.675 155.259C252.209 137.692 258.648 122.904 265.991 110.897C273.319 98.8269 281.718 89.4 291.187 82.6162C295.072 79.8144 299.291 77.888 303.843 76.837C310.827 75.2245 317.371 75.6844 323.473 78.2167C329.531 80.5619 333.187 84.4471 334.44 89.8724C336.354 98.1662 331.697 107.583 320.469 118.123C315.178 123.089 309.554 127.606 303.596 131.674C297.639 135.742 291.331 139.432 284.673 142.742C279.411 145.271 274.209 147.49 269.067 149.4C263.973 151.233 258.838 152.747 253.662 153.942C252.414 154.229 251.191 154.479 249.992 154.69C248.855 154.887 247.749 155.077 246.675 155.259ZM243.732 155.741C243.545 155.785 243.164 155.84 242.588 155.907C242.075 155.96 241.367 156.025 240.465 156.101C239.05 156.231 238.22 155.766 237.976 154.706C237.817 154.02 237.93 153.37 238.314 152.756C239.23 151.034 240.462 149.402 242.012 147.862C243.609 146.246 245.631 144.761 248.077 143.408C247.358 145.413 246.614 147.457 245.847 149.539C245.142 151.606 244.437 153.674 243.732 155.741ZM348.318 176.622C352.29 175.902 355.717 174.815 358.6 173.361C361.545 171.893 363.912 170.197 365.702 168.273C366.589 167.28 367.486 166.187 368.392 164.992C369.361 163.783 370.028 162.545 370.392 161.279C370.819 159.998 370.826 158.748 370.414 157.53C370.049 156.235 368.984 155.036 367.218 153.933C366.604 153.549 365.688 153.136 364.47 152.695C363.251 152.254 361.814 151.863 360.159 151.523C358.567 151.168 356.801 150.919 354.863 150.775C352.988 150.617 351.055 150.636 349.064 150.833C348.287 150.881 347.855 150.718 347.769 150.344C347.682 149.97 348.03 149.627 348.812 149.315C350.783 148.466 353.069 147.412 355.669 146.155C358.331 144.884 361.02 143.442 363.735 141.83C366.512 140.204 369.222 138.429 371.865 136.505C374.494 134.518 376.837 132.434 378.894 130.251C380.588 128.481 381.832 126.617 382.628 124.66C383.487 122.688 383.839 120.801 383.686 118.997C383.518 117.131 382.795 115.426 381.519 113.881C380.243 112.337 378.372 111.061 375.906 110.054C372.069 108.509 368.253 107.486 364.458 106.982C360.664 106.479 356.816 106.316 352.916 106.494C349.002 106.609 345.028 107.034 340.994 107.769C337.007 108.426 332.887 109.213 328.632 110.13C328.383 110.188 327.548 110.413 326.128 110.807C324.708 111.2 322.991 111.728 320.976 112.39C319.024 113.038 316.913 113.854 314.644 114.837C312.361 115.758 310.176 116.821 308.09 118.025C306.065 119.215 304.264 120.518 302.686 121.933C301.156 123.272 300.182 124.744 299.765 126.351C299.319 127.834 299.42 129.124 300.068 130.223C300.701 131.259 301.601 132.168 302.766 132.949C303.98 133.654 305.311 134.3 306.76 134.885C308.194 135.407 309.514 135.858 310.718 136.237C312.013 136.726 312.634 136.714 312.581 136.201C312.528 135.688 311.977 135.289 310.926 135.007C310.293 134.824 309.437 134.529 308.357 134.122C307.326 133.637 306.335 133.045 305.385 132.345C304.421 131.582 303.637 130.745 303.032 129.834C302.428 128.922 302.267 127.941 302.55 126.891C302.986 125.082 303.862 123.468 305.176 122.048C306.538 120.551 308.114 119.268 309.903 118.198C311.692 117.128 313.587 116.231 315.587 115.506C317.635 114.705 319.556 114.064 321.35 113.585C323.192 113.028 324.807 112.622 326.193 112.368C327.642 112.099 328.647 111.9 329.208 111.771C333.026 110.955 336.904 110.256 340.843 109.676C344.781 109.095 348.683 108.785 352.55 108.746C356.464 108.631 360.294 108.863 364.041 109.443C367.788 110.023 371.378 111.066 374.813 112.572C377.077 113.56 378.639 114.776 379.498 116.22C380.419 117.649 380.865 119.155 380.836 120.738C380.793 122.259 380.424 123.789 379.729 125.329C379.033 126.869 378.201 128.244 377.232 129.453C376.215 130.738 374.88 132.065 373.225 133.432C371.632 134.785 369.845 136.15 367.864 137.527C365.931 138.827 363.89 140.086 361.741 141.305C359.655 142.509 357.647 143.63 355.719 144.666C353.839 145.625 352.1 146.487 350.503 147.25C348.968 147.998 347.778 148.535 346.934 148.862C347.26 147.998 347.701 146.78 348.257 145.206C348.814 143.633 349.428 141.882 350.099 139.953C350.818 137.948 351.523 135.881 352.214 133.751C352.904 131.621 353.516 129.575 354.048 127.613C354.643 125.636 355.11 123.821 355.451 122.166C355.791 120.511 355.923 119.232 355.846 118.33C355.817 117.352 355.453 116.91 354.752 117.006C354.038 117.04 353.311 117.306 352.572 117.805C351.819 118.242 351.212 118.743 350.752 119.309C350.291 119.875 350.255 120.147 350.644 120.123C351.095 120.084 351.426 120.238 351.637 120.583C351.834 120.866 351.951 121.233 351.99 121.684C352.076 122.058 352.083 122.516 352.011 123.058C351.987 123.523 351.942 123.895 351.875 124.173C351.568 125.689 351.156 127.459 350.638 129.484C350.12 131.508 349.499 133.655 348.775 135.924C348.05 138.193 347.247 140.546 346.365 142.983C345.53 145.343 344.65 147.648 343.725 149.898C342.972 150.335 342.048 150.745 340.955 151.129C339.909 151.436 339.113 151.685 338.566 151.877C338.379 151.921 338.22 152.089 338.091 152.381C338.009 152.597 338.005 152.861 338.077 153.173C338.196 153.408 338.417 153.652 338.739 153.907C339.046 154.098 339.47 154.23 340.012 154.302C340.492 154.388 340.895 154.427 341.221 154.417C341.547 154.408 341.943 154.415 342.408 154.439C341.708 156.242 340.931 158.425 340.078 160.987C339.21 163.486 338.349 166.017 337.495 168.578C336.642 171.14 335.891 173.579 335.244 175.896C334.659 178.199 334.323 180.017 334.237 181.351C334.083 182.962 334.155 183.701 334.453 183.567C334.813 183.418 335.16 182.648 335.496 181.257C335.841 179.338 336.474 176.959 337.395 174.119C338.364 171.202 339.354 168.379 340.366 165.649C341.426 162.843 342.402 160.385 343.294 158.274C344.234 156.086 344.833 154.7 345.092 154.115C346.119 154.009 347.517 153.949 349.287 153.934C351.043 153.857 352.851 153.867 354.713 153.963C356.574 154.058 358.356 154.238 360.059 154.502C361.81 154.689 363.163 155 364.117 155.437C365.58 156.084 366.629 156.926 367.262 157.962C367.895 158.998 368.186 160.113 368.133 161.308C368.128 162.426 367.829 163.546 367.234 164.668C366.625 165.729 365.816 166.638 364.809 167.396C362.464 169.185 359.734 170.735 356.621 172.045C353.57 173.34 350.44 174.293 347.231 174.902C346.857 174.989 346.505 175.169 346.174 175.442C345.828 175.653 345.653 175.891 345.648 176.154C345.629 176.356 345.797 176.514 346.152 176.629C346.584 176.792 347.306 176.79 348.318 176.622ZM387.697 124.376C388.709 124.208 389.753 124.033 390.827 123.851C391.887 123.606 392.947 123.361 394.007 123.117C418.328 117.502 441.662 105.908 464.009 88.3341C470.135 83.5701 474.387 78.5161 476.765 73.172C478.996 68.322 479.578 63.5897 478.513 58.9751C477.116 52.9262 473.357 48.3095 467.236 45.1248C460.836 41.8731 453.646 41.1686 445.664 43.0114C440.862 44.1199 436.231 46.1087 431.77 48.9778C423.399 54.26 415.739 61.9072 408.789 71.9192C401.887 81.8544 395.59 94.4088 389.898 109.582C384.089 112.303 380.031 115.637 377.724 119.585C377.594 119.878 377.496 120.163 377.429 120.441C377.362 120.72 377.371 121.046 377.458 121.42C377.659 122.293 378.211 123.118 379.113 123.895C380.015 124.672 380.924 125.053 381.84 125.039C382.43 125.034 382.95 125.012 383.401 124.974C383.915 124.921 384.334 124.89 384.661 124.88C381.956 133.65 379.599 141.649 377.59 148.878C375.628 156.031 374.012 162.545 372.742 168.421C372.723 168.623 372.749 168.88 372.821 169.191C373.051 170.189 373.416 170.63 373.915 170.515C374.102 170.472 374.222 170.28 374.275 169.94C374.663 169.062 374.948 168.733 375.131 168.954C377.159 164.938 380.21 159.801 384.282 153.54C389.136 146.114 393.093 141.062 396.153 138.385C396.738 137.79 397.311 137.428 397.873 137.299C398.808 137.083 399.377 137.411 399.578 138.284C399.693 138.783 399.662 139.217 399.485 139.587C395.667 148.087 393.735 154.938 393.687 160.138C393.706 161.644 394.563 162.793 396.256 163.584C397.7 164.433 398.983 164.728 400.106 164.469C403.723 163.634 408.822 158.975 415.402 150.493L415.906 149.688C415.829 149.64 415.791 149.616 415.791 149.616C415.776 149.553 415.731 149.498 415.654 149.45C415.606 149.527 415.496 149.618 415.323 149.724C415.213 149.815 415.078 149.944 414.92 150.112C409.207 156.948 404.823 160.719 401.768 161.425C400.084 161.813 399.055 161.197 398.681 159.576C398.162 157.331 398.79 153.081 400.565 146.825C401.342 144.216 402.114 141.87 402.881 139.788C403.634 137.643 404.389 135.794 405.147 134.24C405.195 134.163 405.19 134 405.133 133.751C405.017 133.252 404.629 132.849 403.967 132.542C403.29 132.172 402.772 132.062 402.413 132.211C400.36 133.276 399.244 133.993 399.067 134.363C397.052 135.025 393.702 138.294 389.016 144.171C387.107 146.714 385.26 149.242 383.476 151.756C381.692 154.269 380.032 156.754 378.497 159.211C377.826 160.285 377.305 161.161 376.936 161.837C376.567 162.514 376.255 163.013 376.001 163.334C378.024 156.167 380.003 149.372 381.935 142.949C383.868 136.525 385.788 130.334 387.697 124.376ZM388.172 122.592C393.706 105.025 400.144 90.2373 407.488 78.2298C414.816 66.1598 423.215 56.7329 432.684 49.9491C436.569 47.1472 440.788 45.2208 445.34 44.1699C452.324 42.5574 458.867 43.0173 464.969 45.5496C471.028 47.8947 474.684 51.78 475.936 57.2053C477.851 65.4991 473.194 74.9161 461.965 85.4561C456.675 90.4215 451.051 94.9384 445.093 99.0068C439.136 103.075 432.828 106.765 426.17 110.075C420.908 112.604 415.706 114.823 410.564 116.733C405.469 118.566 400.334 120.079 395.159 121.274C393.911 121.562 392.688 121.812 391.489 122.023C390.352 122.22 389.246 122.409 388.172 122.592ZM385.229 123.074C385.042 123.117 384.66 123.173 384.085 123.24C383.572 123.293 382.864 123.357 381.962 123.434C380.547 123.564 379.717 123.099 379.472 122.039C379.314 121.353 379.427 120.703 379.81 120.089C380.726 118.366 381.959 116.735 383.508 115.195C385.106 113.579 387.127 112.094 389.574 110.741C388.854 112.746 388.111 114.79 387.344 116.872C386.639 118.939 385.934 121.007 385.229 123.074ZM417.432 158.597C420.828 155.382 424.737 150.834 429.16 144.953C431.356 141.95 433.253 139.213 434.851 136.742C436.51 134.257 437.879 131.938 438.959 129.784C439.054 129.63 439.134 129.546 439.196 129.532C439.695 129.417 439.805 129.752 439.527 130.539C438.841 132.405 438.191 134.427 437.578 136.605C437.026 138.769 436.48 141.095 435.938 143.585C435.497 145.657 435.12 148.01 434.809 150.644C434.497 153.277 434.248 155.897 434.061 158.501C433.889 161.169 433.805 163.651 433.81 165.949C433.877 168.232 434.031 170.036 434.271 171.36C434.583 172.995 435.101 174.387 435.826 175.533C436.627 176.727 437.699 177.531 439.042 177.943C440.198 178.399 441.45 178.701 442.798 178.849C444.161 179.06 445.59 178.993 447.087 178.648C448.085 178.417 448.998 178.108 449.828 177.719C450.672 177.393 451.495 176.973 452.296 176.46C453.898 175.433 455.57 173.996 457.311 172.149C459.115 170.288 461.081 167.995 463.211 165.27C465.47 162.252 467.324 159.328 468.772 156.498C470.283 153.653 471.511 151.005 472.455 148.554C472.604 148.059 472.65 147.688 472.592 147.438C472.563 147.314 472.51 147.227 472.434 147.179C472.247 147.222 471.944 147.621 471.527 148.374C470.477 150.652 469.175 153.121 467.621 155.778C466.129 158.422 464.342 161.067 462.261 163.715C457.939 169.18 454.255 172.855 451.21 174.74C449.2 175.992 447.072 176.877 444.827 177.396C442.582 177.914 440.683 177.794 439.128 177.037C437.589 176.341 436.574 174.933 436.084 172.813C436.012 172.501 435.94 172.189 435.868 171.878C435.811 171.628 435.777 171.34 435.768 171.014C435.6 169.148 435.587 166.819 435.731 164.027C435.875 161.236 436.114 158.29 436.45 155.191C436.833 152.016 437.325 148.881 437.924 145.787C438.509 142.63 439.204 139.809 440.01 137.324C441.046 134.13 442.127 130.99 443.254 127.905C444.429 124.744 445.597 121.551 446.757 118.328C446.791 118.189 446.678 117.985 446.419 117.716C446.16 117.448 445.906 117.342 445.656 117.4C445.407 117.457 445.234 117.563 445.138 117.716C444.783 118.455 444.066 119.047 442.987 119.494C442.877 119.585 442.277 119.69 441.188 119.81C440.382 119.734 439.591 119.719 438.814 119.768C438.022 119.753 437.252 119.832 436.504 120.005C435.818 120.164 435.154 120.415 434.511 120.761C433.916 121.03 433.36 121.322 432.842 121.639C430.64 123.198 428.366 125.299 426.021 127.943C423.661 130.524 421.258 133.772 418.812 137.686C413.488 146.206 411.337 152.68 412.359 157.108C412.863 159.29 413.895 160.201 415.454 159.842C416.077 159.698 416.737 159.283 417.432 158.597ZM417.093 150.3C417.506 148.103 418.177 145.748 419.107 143.234C420.1 140.706 421.383 138.012 422.956 135.153C426.309 129.19 429.364 125.496 432.122 124.071C432.827 123.711 433.523 123.452 434.209 123.294C435.456 123.006 436.557 123.08 437.512 123.517C438.452 123.891 439.001 124.421 439.16 125.107C439.217 125.356 439.174 125.596 439.03 125.826C435.826 132.149 432.723 137.627 429.721 142.262C426.704 146.833 423.701 150.614 420.713 153.603C420.286 154.029 419.854 154.293 419.418 154.394C418.295 154.653 417.561 154.035 417.216 152.538C417.043 151.79 417.002 151.044 417.093 150.3ZM444.14 154.992C444.835 154.306 445.459 153.735 446.01 153.28C446.576 152.886 447.087 152.538 447.543 152.236C447.984 151.871 448.183 151.596 448.14 151.409C452.638 137.89 458.912 127.509 466.96 120.265C468.821 118.653 470.44 117.983 471.817 118.257C472.033 118.338 472.282 118.281 472.565 118.084C472.834 117.825 473.064 117.542 473.256 117.235C473.496 116.851 473.673 116.482 473.789 116.127C473.952 115.695 474.012 115.385 473.968 115.198C473.954 115.136 473.908 115.081 473.832 115.033C472.795 114.812 471.318 114.956 469.399 115.465C467.37 116.919 464.735 119.728 461.492 123.892C458.346 127.902 455.895 131.654 454.139 135.146C454.01 135.439 453.693 135.775 453.19 136.154C452.561 136.561 452.211 136.609 452.139 136.298C452.082 136.048 452.103 135.715 452.204 135.297C452.573 133.767 453.213 131.846 454.124 129.534C455.084 127.145 456.244 124.348 457.606 121.143C457.846 120.76 457.798 120.409 457.462 120.093C457.266 119.81 456.98 119.712 456.606 119.798C456.419 119.841 456.309 119.932 456.275 120.071C452.893 123.348 450.857 125.197 450.167 125.62C450.147 125.821 450.198 126.039 450.318 126.274C450.634 126.793 450.807 127.114 450.836 127.239C450.98 127.862 450.973 128.685 450.815 129.707C449.798 135.262 447.345 143.414 443.456 154.165C443.341 154.52 443.382 154.839 443.578 155.122C443.727 155.482 443.914 155.438 444.14 154.992ZM468.678 146.765C472.074 143.551 475.983 139.003 480.405 133.122C482.602 130.119 484.499 127.382 486.096 124.911C487.756 122.426 489.125 120.107 490.204 117.953C490.3 117.799 490.379 117.715 490.442 117.701C490.941 117.586 491.051 117.921 490.773 118.708C490.087 120.574 489.437 122.596 488.823 124.774C488.272 126.938 487.725 129.264 487.183 131.754C486.742 133.826 486.366 136.179 486.054 138.813C485.743 141.446 485.494 144.066 485.307 146.67C485.134 149.338 485.051 151.82 485.056 154.118C485.123 156.401 485.277 158.205 485.517 159.529C485.829 161.164 486.347 162.556 487.071 163.702C487.873 164.896 488.945 165.7 490.288 166.112C491.444 166.568 492.696 166.87 494.044 167.018C495.406 167.229 496.836 167.162 498.333 166.817C499.33 166.586 500.244 166.277 501.074 165.888C501.918 165.562 502.741 165.142 503.542 164.629C505.144 163.602 506.816 162.165 508.557 160.318C510.36 158.457 512.327 156.164 514.457 153.439C516.716 150.421 518.569 147.497 520.018 144.667C521.529 141.822 522.756 139.174 523.701 136.723C523.85 136.228 523.895 135.857 523.838 135.607C523.809 135.483 523.756 135.396 523.679 135.348C523.492 135.391 523.19 135.79 522.773 136.543C521.723 138.821 520.42 141.29 518.866 143.947C517.375 146.591 515.588 149.236 513.507 151.884C509.185 157.349 505.501 161.024 502.455 162.909C500.445 164.161 498.318 165.046 496.073 165.565C493.828 166.083 491.929 165.963 490.374 165.206C488.834 164.51 487.82 163.102 487.33 160.982C487.258 160.67 487.186 160.358 487.114 160.047C487.057 159.797 487.023 159.509 487.013 159.183C486.845 157.317 486.833 154.988 486.977 152.196C487.12 149.404 487.36 146.459 487.695 143.36C488.079 140.185 488.57 137.05 489.17 133.956C489.755 130.799 490.45 127.978 491.256 125.493C492.291 122.299 493.373 119.159 494.5 116.074C495.675 112.913 496.843 109.72 498.003 106.497C498.037 106.358 497.924 106.154 497.665 105.885C497.406 105.616 497.152 105.511 496.902 105.569C496.653 105.626 496.48 105.732 496.384 105.885C496.029 106.624 495.312 107.216 494.233 107.663C494.123 107.754 493.523 107.859 492.434 107.979C491.628 107.903 490.837 107.888 490.059 107.937C489.268 107.922 488.498 108.001 487.75 108.174C487.064 108.333 486.399 108.584 485.757 108.93C485.162 109.199 484.605 109.491 484.087 109.808C481.886 111.367 479.612 113.468 477.267 116.112C474.907 118.693 472.504 121.941 470.058 125.855C464.734 134.375 462.583 140.849 463.605 145.276C464.109 147.459 465.14 148.37 466.699 148.01C467.323 147.867 467.983 147.452 468.678 146.765ZM468.339 138.469C468.751 136.272 469.423 133.917 470.353 131.403C471.346 128.875 472.629 126.181 474.202 123.322C477.555 117.359 480.61 113.665 483.368 112.24C484.073 111.88 484.769 111.621 485.455 111.463C486.702 111.175 487.803 111.249 488.757 111.685C489.698 112.06 490.247 112.59 490.405 113.276C490.463 113.525 490.42 113.765 490.276 113.995C487.072 120.318 483.969 125.796 480.966 130.431C477.95 135.002 474.947 138.783 471.959 141.771C471.532 142.198 471.1 142.462 470.664 142.563C469.541 142.822 468.807 142.204 468.462 140.707C468.289 139.959 468.248 139.213 468.339 138.469ZM501.054 129.34C501.793 132.256 502.928 134.326 504.458 135.549C505.974 136.71 507.665 137.206 509.531 137.038C511.397 136.87 513.345 136.059 515.374 134.606C517.403 133.152 519.285 131.207 521.021 128.77C521.563 127.988 522.115 127.105 522.676 126.121C523.3 125.124 523.789 124.255 524.144 123.517C524.484 122.715 524.523 122.312 524.259 122.308C524.043 122.226 523.743 122.492 523.359 123.106C522.846 124.013 522.326 124.889 521.798 125.733C521.319 126.501 520.745 127.29 520.079 128.1C518.841 129.568 517.436 130.878 515.863 132.03C514.337 133.104 512.805 133.721 511.265 133.879C509.787 134.023 508.399 133.556 507.098 132.477C505.861 131.383 504.966 129.356 504.414 126.397C503.886 123.825 503.598 120.871 503.55 117.532C503.549 114.116 503.741 110.821 504.124 107.645C513.186 103.648 521.973 99.3207 530.488 94.662C539.064 89.9889 547.415 84.9081 555.541 79.4195C579.222 63.64 592.722 49.4228 596.04 36.768C596.597 34.3406 596.75 31.8749 596.5 29.3709C595.396 21.7438 590.675 15.8055 582.338 11.5562C574.11 7.21567 565.502 6.34582 556.513 8.94664C530.461 16.7346 511.938 49.4519 500.944 107.099L501.009 107.379C500.285 111.356 499.897 115.222 499.844 118.978C499.777 122.672 500.181 126.126 501.054 129.34ZM593.493 34.6959C590.736 46.3673 579.829 59.2962 560.771 73.4827C552.761 79.4702 544.057 85.1578 534.661 90.5457C525.264 95.9337 515.133 101.13 504.268 106.134C504.383 105.779 504.467 105.431 504.52 105.091C504.573 104.75 504.625 104.41 504.678 104.069L504.585 104.091C506.172 95.3166 508.133 86.8833 510.468 78.7906C512.789 70.6354 515.563 62.7369 518.791 55.095C529.265 29.6219 541.969 14.8004 556.902 10.6304C565.747 8.25981 573.892 8.97379 581.338 12.7723C588.74 16.3838 592.861 21.5737 593.701 28.3422C593.821 29.4311 593.871 30.5033 593.852 31.5586C593.819 32.5516 593.699 33.5974 593.493 34.6959ZM563.78 95.7446C563.991 95.2361 563.957 94.9483 563.679 94.8812C563.463 94.7996 563.249 95.0131 563.038 95.5216C562.448 96.3803 561.547 97.3111 560.333 98.3137C559.182 99.302 557.966 100.01 556.685 100.437C555.716 100.792 554.522 101.166 553.102 101.56C551.744 101.939 550.262 102.347 548.655 102.783C547.034 103.158 545.319 103.553 543.511 103.971C541.765 104.374 540.05 104.77 538.366 105.159C541.369 103.94 543.949 102.457 546.108 100.711C548.266 98.9649 549.612 97.1107 550.144 95.1487C550.489 94.0837 550.47 93.0044 550.086 91.9107C549.765 90.8026 549.223 89.8769 548.46 89.1334C547.745 88.3132 546.869 87.7928 545.833 87.5722C544.783 87.2893 543.708 87.4717 542.61 88.1194C540.629 89.4963 538.518 91.5928 536.278 94.4088C534.086 97.1481 532.089 100.302 530.285 103.871C528.53 107.364 527.175 111.027 526.221 114.859C525.329 118.678 525.185 122.324 525.79 125.797C526.016 127.058 526.57 128.178 527.453 129.157C528.321 130.073 529.316 130.828 530.439 131.423C531.562 132.018 532.734 132.404 533.958 132.581C535.167 132.696 536.217 132.552 537.109 132.149C538.189 131.703 539.27 131.125 540.354 130.415C541.486 129.628 542.549 128.824 543.542 128.004C544.535 127.184 545.434 126.385 546.24 125.608C547.031 124.768 547.712 124.02 548.283 123.362C548.71 122.935 548.777 122.657 548.484 122.528C548.177 122.336 547.81 122.453 547.384 122.88C545.916 124.205 544.098 125.577 541.93 126.997C539.824 128.402 537.778 129.499 535.792 130.286C534.996 130.535 534.178 130.691 533.339 130.754C532.547 130.739 531.789 130.586 531.065 130.293C530.388 129.924 529.762 129.346 529.187 128.559C528.673 127.758 528.289 126.665 528.035 125.278C527.752 123.767 527.701 122.268 527.884 120.781C528.051 119.232 528.327 117.723 528.711 116.255C529.094 114.787 529.531 113.406 530.02 112.11C530.557 110.738 531.061 109.506 531.531 108.412C533.401 107.98 535.584 107.476 538.078 106.9C540.573 106.324 543.06 105.717 545.54 105.079C548.02 104.441 550.282 103.853 552.325 103.315C554.431 102.764 555.992 102.272 557.009 101.84C558.698 101.187 560.12 100.235 561.276 98.9828C562.48 97.654 563.314 96.5745 563.78 95.7446ZM547.705 94.8251C547.216 96.1203 546.424 97.3868 545.331 98.6246C544.299 99.8479 543.091 101.014 541.704 102.122C540.304 103.168 538.774 104.079 537.114 104.857C535.454 105.634 533.814 106.21 532.192 106.584C533.78 103.787 535.514 101.055 537.394 98.3879C539.26 95.6582 541.195 93.3722 543.2 91.53C544.02 90.8152 544.773 90.3786 545.459 90.2202C546.193 89.9851 546.798 90.0426 547.273 90.3927C547.733 90.6805 548.019 91.2057 548.129 91.9685C548.239 92.7312 548.098 93.6834 547.705 94.8251Z" fill="#6D6D6D" fill-opacity="0.38"/>
</svg>
